<?xml version="1.0" encoding="UTF-8" standalone="no"?>
<!DOCTYPE svg PUBLIC "-//W3C//DTD SVG 1.0//EN" "http://www.w3.org/TR/2001/PR-SVG-20010719/DTD/svg10.dtd">
<svg width="22cm" height="28cm" viewBox="196 95 440 544" xmlns="http://www.w3.org/2000/svg" xmlns:xlink="http://www.w3.org/1999/xlink">
  <g>
    <rect style="fill: #ffffff" x="230.305" y="214" width="128" height="54"/>
    <rect style="fill: none; fill-opacity:0; stroke-width: 1; stroke: #000000" x="230.305" y="214" width="128" height="54"/>
    <text font-size="12.8016" style="fill: #000000;text-anchor:middle;font-family:Arial;font-style:normal;font-weight:700" x="294.305" y="244.599">
      <tspan x="294.305" y="244.599">Clasificador 1</tspan>
    </text>
  </g>
  <g>
    <rect style="fill: #ffffff" x="230.305" y="331.6" width="128" height="54"/>
    <rect style="fill: none; fill-opacity:0; stroke-width: 1; stroke: #000000" x="230.305" y="331.6" width="128" height="54"/>
    <text font-size="12.8016" style="fill: #000000;text-anchor:middle;font-family:Arial;font-style:normal;font-weight:700" x="294.305" y="362.199">
      <tspan x="294.305" y="362.199">Clasificador 2</tspan>
    </text>
  </g>
  <g>
    <rect style="fill: #ffffff" x="230.305" y="449.7" width="128" height="54"/>
    <rect style="fill: none; fill-opacity:0; stroke-width: 1; stroke: #000000" x="230.305" y="449.7" width="128" height="54"/>
    <text font-size="12.8016" style="fill: #000000;text-anchor:middle;font-family:Arial;font-style:normal;font-weight:700" x="294.305" y="480.299">
      <tspan x="294.305" y="480.299">Clasificador n</tspan>
    </text>
  </g>
  <g>
    <line style="fill: none; fill-opacity:0; stroke-width: 1; stroke: #000000" x1="294.305" y1="268" x2="294.305" y2="321.1"/>
    <polygon style="fill: #000000" points="289.305,321.1 294.305,331.1 299.305,321.1 "/>
    <polygon style="fill: none; fill-opacity:0; stroke-width: 1; stroke: #000000" points="289.305,321.1 294.305,331.1 299.305,321.1 "/>
  </g>
  <g>
    <line style="fill: none; fill-opacity:0; stroke-width: 1; stroke: #000000" x1="294.305" y1="385.6" x2="294.305" y2="439.2"/>
    <polygon style="fill: #000000" points="289.305,439.2 294.305,449.2 299.305,439.2 "/>
    <polygon style="fill: none; fill-opacity:0; stroke-width: 1; stroke: #000000" points="289.305,439.2 294.305,449.2 299.305,439.2 "/>
  </g>
  <g>
    <line style="fill: none; fill-opacity:0; stroke-width: 1; stroke: #000000" x1="294.305" y1="503.7" x2="294.305" y2="559.6"/>
    <polygon style="fill: #000000" points="289.305,559.6 294.305,569.6 299.305,559.6 "/>
    <polygon style="fill: none; fill-opacity:0; stroke-width: 1; stroke: #000000" points="289.305,559.6 294.305,569.6 299.305,559.6 "/>
  </g>
  <g>
    <line style="fill: none; fill-opacity:0; stroke-width: 1; stroke: #000000" x1="294.305" y1="153.343" x2="294.305" y2="203.5"/>
    <polygon style="fill: #000000" points="289.305,203.5 294.305,213.5 299.305,203.5 "/>
    <polygon style="fill: none; fill-opacity:0; stroke-width: 1; stroke: #000000" points="289.305,203.5 294.305,213.5 299.305,203.5 "/>
  </g>
  <g>
    <polygon style="fill: #ffffff" points="236.956,96 372.401,96 351.654,153 216.21,153 "/>
    <polygon style="fill: none; fill-opacity:0; stroke-width: 1; stroke: #000000" points="236.956,96 372.401,96 351.654,153 216.21,153 "/>
    <text font-size="12.8" style="fill: #000000;text-anchor:middle;font-family:Arial;font-style:normal;font-weight:700" x="294.305" y="128.1">
      <tspan x="294.305" y="128.1">Candidato</tspan>
    </text>
  </g>
  <g>
    <polygon style="fill: #ffffff" points="221.532,570.6 391.829,570.6 367.079,638.6 196.782,638.6 "/>
    <polygon style="fill: none; fill-opacity:0; stroke-width: 1; stroke: #000000" points="221.532,570.6 391.829,570.6 367.079,638.6 196.782,638.6 "/>
    <text font-size="12.8" style="fill: #000000;text-anchor:middle;font-family:Arial;font-style:normal;font-weight:700" x="294.305" y="600.2">
      <tspan x="294.305" y="600.2">Candidato identificado</tspan>
      <tspan x="294.305" y="616.2">como cara</tspan>
    </text>
  </g>
  <g>
    <polygon style="fill: #ffffff" points="467.997,332.6 634.794,332.6 615.503,385.6 448.706,385.6 "/>
    <polygon style="fill: none; fill-opacity:0; stroke-width: 1; stroke: #000000" points="467.997,332.6 634.794,332.6 615.503,385.6 448.706,385.6 "/>
    <text font-size="12.8" style="fill: #000000;text-anchor:middle;font-family:Arial;font-style:normal;font-weight:700" x="541.75" y="354.7">
      <tspan x="541.75" y="354.7">Candidato descartado</tspan>
      <tspan x="541.75" y="370.7">como cara</tspan>
    </text>
  </g>
  <g>
    <line style="fill: none; fill-opacity:0; stroke-width: 1; stroke: #000000" x1="358.305" y1="241" x2="490.979" y2="326.414"/>
    <polygon style="fill: #000000" points="488.272,330.618 499.387,331.827 493.686,322.21 "/>
    <polygon style="fill: none; fill-opacity:0; stroke-width: 1; stroke: #000000" points="488.272,330.618 499.387,331.827 493.686,322.21 "/>
  </g>
  <g>
    <line style="fill: none; fill-opacity:0; stroke-width: 1; stroke: #000000" x1="358.305" y1="358.6" x2="447.623" y2="358.843"/>
    <polygon style="fill: #000000" points="447.609,363.843 457.623,358.871 447.636,353.843 "/>
    <polygon style="fill: none; fill-opacity:0; stroke-width: 1; stroke: #000000" points="447.609,363.843 457.623,358.871 447.636,353.843 "/>
  </g>
  <g>
    <line style="fill: none; fill-opacity:0; stroke-width: 1; stroke: #000000" x1="352.119" y1="449.224" x2="475.45" y2="390.61"/>
    <polygon style="fill: #000000" points="477.596,395.126 484.482,386.317 473.303,386.094 "/>
    <polygon style="fill: none; fill-opacity:0; stroke-width: 1; stroke: #000000" points="477.596,395.126 484.482,386.317 473.303,386.094 "/>
  </g>
  <text font-size="12.8" style="fill: #000000;text-anchor:start;font-family:Arial;font-style:normal;font-weight:700" x="305" y="402">
    <tspan x="305" y="402">SI</tspan>
  </text>
  <text font-size="12.8" style="fill: #000000;text-anchor:start;font-family:Arial;font-style:normal;font-weight:700" x="301.4" y="283.7">
    <tspan x="301.4" y="283.7">SI</tspan>
  </text>
  <text font-size="12.8" style="fill: #000000;text-anchor:start;font-family:Arial;font-style:normal;font-weight:700" x="304.8" y="519.8">
    <tspan x="304.8" y="519.8">SI</tspan>
  </text>
  <text font-size="12.8" style="fill: #000000;text-anchor:start;font-family:Arial;font-style:normal;font-weight:700" x="376.2" y="242.9">
    <tspan x="376.2" y="242.9">NO</tspan>
  </text>
  <text font-size="12.8" style="fill: #000000;text-anchor:start;font-family:Arial;font-style:normal;font-weight:700" x="366.4" y="350.7">
    <tspan x="366.4" y="350.7">NO</tspan>
  </text>
  <text font-size="12.8" style="fill: #000000;text-anchor:start;font-family:Arial;font-style:normal;font-weight:700" x="367" y="453">
    <tspan x="367" y="453">NO</tspan>
  </text>
</svg>
