<?xml version="1.0" encoding="UTF-8" standalone="no"?>
<!DOCTYPE svg PUBLIC "-//W3C//DTD SVG 1.0//EN" "http://www.w3.org/TR/2001/PR-SVG-20010719/DTD/svg10.dtd">
<svg width="38cm" height="45cm" viewBox="217 246 743 889" xmlns="http://www.w3.org/2000/svg" xmlns:xlink="http://www.w3.org/1999/xlink">
  <g>
    <polygon style="fill: #bfbfbf" points="470.835,324.874 544.639,396.816 470.835,468.757 397.032,396.816 "/>
    <polygon style="fill: none; fill-opacity:0; stroke-width: 1; stroke: #000000" points="470.835,324.874 544.639,396.816 470.835,468.757 397.032,396.816 "/>
    <text font-size="11.2889" style="fill: #000000;text-anchor:middle;font-family:sans-serif;font-style:normal;font-weight:700" x="470.835" y="386.949">
      <tspan x="470.835" y="386.949">¿Se detecta </tspan>
      <tspan x="470.835" y="401.06">al menos </tspan>
      <tspan x="470.835" y="415.171">una cara?</tspan>
    </text>
  </g>
  <g>
    <line style="fill: none; fill-opacity:0; stroke-width: 1; stroke: #000000" x1="470.836" y1="299" x2="470.836" y2="314.374"/>
    <polygon style="fill: #000000" points="465.836,314.374 470.836,324.374 475.836,314.374 "/>
    <polygon style="fill: none; fill-opacity:0; stroke-width: 1; stroke: #000000" points="465.836,314.374 470.836,324.374 475.836,314.374 "/>
  </g>
  <g>
    <rect style="fill: #bfbfbf" x="384.112" y="247" width="173.45" height="52"/>
    <rect style="fill: none; fill-opacity:0; stroke-width: 1; stroke: #000000" x="384.112" y="247" width="173.45" height="52"/>
    <text font-size="11.2889" style="fill: #000000;text-anchor:middle;font-family:sans-serif;font-style:normal;font-weight:700" x="470.837" y="277.244">
      <tspan x="470.837" y="277.244">Camara captura imagen</tspan>
    </text>
  </g>
  <g>
    <polyline style="fill: none; fill-opacity:0; stroke-width: 1; stroke: #000000" points="544.64,396.816 630.63,396.816 630.63,286 568.062,286 "/>
    <polygon style="fill: #000000" points="568.062,281 558.062,286 568.062,291 "/>
    <polygon style="fill: none; fill-opacity:0; stroke-width: 1; stroke: #000000" points="568.062,281 558.062,286 568.062,291 "/>
  </g>
  <text font-size="11.2889" style="fill: #000000;text-anchor:start;font-family:sans-serif;font-style:normal;font-weight:700" x="549.556" y="388.946">
    <tspan x="549.556" y="388.946">NO</tspan>
  </text>
  <g>
    <line style="fill: none; fill-opacity:0; stroke-width: 1; stroke: #000000" x1="470.836" y1="468.756" x2="470.836" y2="486.45"/>
    <polygon style="fill: #000000" points="465.836,486.45 470.836,496.45 475.836,486.45 "/>
    <polygon style="fill: none; fill-opacity:0; stroke-width: 1; stroke: #000000" points="465.836,486.45 470.836,496.45 475.836,486.45 "/>
  </g>
  <g>
    <rect style="fill: #bfbfbf" x="409.838" y="808.12" width="121.996" height="37.1111"/>
    <rect style="fill: none; fill-opacity:0; stroke-width: 1; stroke: #000000" x="409.838" y="808.12" width="121.996" height="37.1111"/>
    <text font-size="11.2889" style="fill: #000000;text-anchor:middle;font-family:sans-serif;font-style:normal;font-weight:700" x="470.836" y="830.92">
      <tspan x="470.836" y="830.92">Enviar a Azure</tspan>
    </text>
  </g>
  <g>
    <polygon style="fill: #bfbfbf" points="470.836,872.304 548.851,947.338 470.836,1022.37 392.82,947.338 "/>
    <polygon style="fill: none; fill-opacity:0; stroke-width: 1; stroke: #000000" points="470.836,872.304 548.851,947.338 470.836,1022.37 392.82,947.338 "/>
    <text font-size="11.2889" style="fill: #000000;text-anchor:middle;font-family:sans-serif;font-style:normal;font-weight:700" x="470.836" y="937.471">
      <tspan x="470.836" y="937.471">¿Se ha </tspan>
      <tspan x="470.836" y="951.582">identificado a</tspan>
      <tspan x="470.836" y="965.693"> la persona?</tspan>
    </text>
  </g>
  <g>
    <line style="fill: none; fill-opacity:0; stroke-width: 1; stroke: #000000" x1="470.836" y1="845.232" x2="470.836" y2="861.804"/>
    <polygon style="fill: #000000" points="465.836,861.804 470.836,871.804 475.836,861.804 "/>
    <polygon style="fill: none; fill-opacity:0; stroke-width: 1; stroke: #000000" points="465.836,861.804 470.836,871.804 475.836,861.804 "/>
  </g>
  <g>
    <polygon style="fill: #bfbfbf" points="628.243,922.338 808.516,922.338 790.318,972.338 610.044,972.338 "/>
    <polygon style="fill: none; fill-opacity:0; stroke-width: 1; stroke: #000000" points="628.243,922.338 808.516,922.338 790.318,972.338 610.044,972.338 "/>
    <text font-size="11.2889" style="fill: #000000;text-anchor:middle;font-family:sans-serif;font-style:normal;font-weight:700" x="709.28" y="951.582">
      <tspan x="709.28" y="951.582">Devolver "Desconocido"</tspan>
    </text>
  </g>
  <g>
    <polygon style="fill: #bfbfbf" points="367.518,1047.61 592.972,1047.61 574.154,1099.31 348.7,1099.31 "/>
    <polygon style="fill: none; fill-opacity:0; stroke-width: 1; stroke: #000000" points="367.518,1047.61 592.972,1047.61 574.154,1099.31 348.7,1099.31 "/>
    <text font-size="11.2889" style="fill: #000000;text-anchor:middle;font-family:sans-serif;font-style:normal;font-weight:700" x="470.836" y="1070.65">
      <tspan x="470.836" y="1070.65">Devolver nombre </tspan>
      <tspan x="470.836" y="1084.76">de la persona</tspan>
    </text>
  </g>
  <g>
    <line style="fill: none; fill-opacity:0; stroke-width: 1; stroke: #000000" x1="470.836" y1="1022.37" x2="470.836" y2="1036.61"/>
    <polygon style="fill: #000000" points="465.836,1036.61 470.836,1046.61 475.836,1036.61 "/>
    <polygon style="fill: none; fill-opacity:0; stroke-width: 1; stroke: #000000" points="465.836,1036.61 470.836,1046.61 475.836,1036.61 "/>
  </g>
  <g>
    <line style="fill: none; fill-opacity:0; stroke-width: 1; stroke: #000000" x1="548.852" y1="947.338" x2="608.644" y2="947.338"/>
    <polygon style="fill: #000000" points="608.644,952.338 618.644,947.338 608.644,942.338 "/>
    <polygon style="fill: none; fill-opacity:0; stroke-width: 1; stroke: #000000" points="608.644,952.338 618.644,947.338 608.644,942.338 "/>
  </g>
  <g>
    <rect style="fill: #bfbfbf" x="403.836" y="496.95" width="134" height="38.8"/>
    <rect style="fill: none; fill-opacity:0; stroke-width: 1; stroke: #000000" x="403.836" y="496.95" width="134" height="38.8"/>
    <text font-size="11.2889" style="fill: #000000;text-anchor:middle;font-family:sans-serif;font-style:normal;font-weight:700" x="470.836" y="520.594">
      <tspan x="470.836" y="520.594">Separar caras</tspan>
    </text>
  </g>
  <g>
    <line style="fill: none; fill-opacity:0; stroke-width: 1; stroke: #000000" x1="470.836" y1="535.75" x2="470.836" y2="548.25"/>
    <polygon style="fill: #000000" points="465.836,548.25 470.836,558.25 475.836,548.25 "/>
    <polygon style="fill: none; fill-opacity:0; stroke-width: 1; stroke: #000000" points="465.836,548.25 470.836,558.25 475.836,548.25 "/>
  </g>
  <text font-size="11.2889" style="fill: #000000;text-anchor:start;font-family:sans-serif;font-style:normal;font-weight:700" x="551.95" y="940.658">
    <tspan x="551.95" y="940.658">NO</tspan>
  </text>
  <text font-size="11.2889" style="fill: #000000;text-anchor:start;font-family:sans-serif;font-style:normal;font-weight:700" x="484.892" y="1032.71">
    <tspan x="484.892" y="1032.71">SI</tspan>
  </text>
  <text font-size="11.2889" style="fill: #000000;text-anchor:start;font-family:sans-serif;font-style:normal;font-weight:700" x="480.18" y="478.23">
    <tspan x="480.18" y="478.23">SI</tspan>
  </text>
  <g>
    <ellipse style="fill: #bfbfbf" cx="270.302" cy="273.001" rx="52.3477" ry="22.2746"/>
    <ellipse style="fill: none; fill-opacity:0; stroke-width: 1; stroke: #000000" cx="270.302" cy="273.001" rx="52.3477" ry="22.2746"/>
    <text font-size="11.2889" style="fill: #000000;text-anchor:middle;font-family:sans-serif;font-style:normal;font-weight:700" x="270.302" y="277.245">
      <tspan x="270.302" y="277.245">Comienzo</tspan>
    </text>
  </g>
  <g>
    <line style="fill: none; fill-opacity:0; stroke-width: 1; stroke: #000000" x1="322.65" y1="273" x2="373.612" y2="273"/>
    <polygon style="fill: #000000" points="373.612,278 383.612,273 373.612,268 "/>
    <polygon style="fill: none; fill-opacity:0; stroke-width: 1; stroke: #000000" points="373.612,278 383.612,273 373.612,268 "/>
  </g>
  <g>
    <polygon style="fill: #bfbfbf" points="470.837,629.778 556.251,706.754 470.837,783.731 385.422,706.754 "/>
    <polygon style="fill: none; fill-opacity:0; stroke-width: 1; stroke: #000000" points="470.837,629.778 556.251,706.754 470.837,783.731 385.422,706.754 "/>
    <text font-size="11.2889" style="fill: #000000;text-anchor:middle;font-family:sans-serif;font-style:normal;font-weight:700" x="470.837" y="703.943">
      <tspan x="470.837" y="703.943">¿Quedan recortes </tspan>
      <tspan x="470.837" y="718.054">por identificar?</tspan>
    </text>
  </g>
  <g>
    <rect style="fill: #bfbfbf" x="373.836" y="558.75" width="194" height="48.1"/>
    <rect style="fill: none; fill-opacity:0; stroke-width: 1; stroke: #000000" x="373.836" y="558.75" width="194" height="48.1"/>
    <text font-size="11.2889" style="fill: #000000;text-anchor:middle;font-family:sans-serif;font-style:normal;font-weight:700" x="470.836" y="587.044">
      <tspan x="470.836" y="587.044">Convertir caras en recortes</tspan>
    </text>
  </g>
  <g>
    <line style="fill: none; fill-opacity:0; stroke-width: 1; stroke: #000000" x1="470.836" y1="606.85" x2="470.836" y2="619.278"/>
    <polygon style="fill: #000000" points="465.836,619.278 470.836,629.278 475.836,619.278 "/>
    <polygon style="fill: none; fill-opacity:0; stroke-width: 1; stroke: #000000" points="465.836,619.278 470.836,629.278 475.836,619.278 "/>
  </g>
  <g>
    <line style="fill: none; fill-opacity:0; stroke-width: 1; stroke: #000000" x1="470.836" y1="783.732" x2="470.836" y2="797.62"/>
    <polygon style="fill: #000000" points="465.836,797.62 470.836,807.62 475.836,797.62 "/>
    <polygon style="fill: none; fill-opacity:0; stroke-width: 1; stroke: #000000" points="465.836,797.62 470.836,807.62 475.836,797.62 "/>
  </g>
  <text font-size="11.2889" style="fill: #000000;text-anchor:start;font-family:sans-serif;font-style:normal;font-weight:700" x="559.4" y="696.86">
    <tspan x="559.4" y="696.86">NO</tspan>
  </text>
  <text font-size="11.2889" style="fill: #000000;text-anchor:start;font-family:sans-serif;font-style:normal;font-weight:700" x="480.4" y="791.86">
    <tspan x="480.4" y="791.86">SI</tspan>
  </text>
  <g>
    <polyline style="fill: none; fill-opacity:0; stroke-width: 1; stroke: #000000" points="358.108,1073.46 308,1073.46 308,706.754 374.922,706.754 "/>
    <polygon style="fill: #000000" points="374.922,711.754 384.922,706.754 374.922,701.754 "/>
    <polygon style="fill: none; fill-opacity:0; stroke-width: 1; stroke: #000000" points="374.922,711.754 384.922,706.754 374.922,701.754 "/>
  </g>
  <polyline style="fill: none; fill-opacity:0; stroke-width: 1; stroke: #000000" points="700.18,972.338 700.18,1134.39 308,1134.39 308,720.636 "/>
  <g>
    <rect style="fill: #bfbfbf" x="587.6" y="456.35" width="133.15" height="38.8"/>
    <rect style="fill: none; fill-opacity:0; stroke-width: 1; stroke: #000000" x="587.6" y="456.35" width="133.15" height="38.8"/>
    <text font-size="11.2889" style="fill: #000000;text-anchor:middle;font-family:sans-serif;font-style:normal;font-weight:700" x="654.175" y="479.994">
      <tspan x="654.175" y="479.994">Dibujar rectangulos</tspan>
    </text>
  </g>
  <g>
    <polyline style="fill: none; fill-opacity:0; stroke-width: 1; stroke: #000000" points="556.251,706.754 556.251,705.5 654.175,705.5 654.175,505.65 "/>
    <polygon style="fill: #000000" points="659.175,505.65 654.175,495.65 649.175,505.65 "/>
    <polygon style="fill: none; fill-opacity:0; stroke-width: 1; stroke: #000000" points="659.175,505.65 654.175,495.65 649.175,505.65 "/>
  </g>
  <g>
    <polyline style="fill: none; fill-opacity:0; stroke-width: 1; stroke: #000000" points="654.176,456.35 654,456.35 654,260 568.062,260 "/>
    <polygon style="fill: #000000" points="568.062,255 558.062,260 568.062,265 "/>
    <polygon style="fill: none; fill-opacity:0; stroke-width: 1; stroke: #000000" points="568.062,255 558.062,260 568.062,265 "/>
  </g>
  <g>
    <line style="fill: none; fill-opacity:0; stroke-width: 1; stroke: #000000" x1="720.75" y1="475.75" x2="759.5" y2="475.435"/>
    <polygon style="fill: #000000" points="759.54,480.435 769.499,475.354 759.459,470.435 "/>
    <polygon style="fill: none; fill-opacity:0; stroke-width: 1; stroke: #000000" points="759.54,480.435 769.499,475.354 759.459,470.435 "/>
  </g>
  <g>
    <polygon style="fill: #bfbfbf" points="779.099,450.35 959.372,450.35 941.174,500.35 760.9,500.35 "/>
    <polygon style="fill: none; fill-opacity:0; stroke-width: 1; stroke: #000000" points="779.099,450.35 959.372,450.35 941.174,500.35 760.9,500.35 "/>
    <text font-size="11.2889" style="fill: #000000;text-anchor:middle;font-family:sans-serif;font-style:normal;font-weight:700" x="860.136" y="472.539">
      <tspan x="860.136" y="472.539">Devolver imagen</tspan>
      <tspan x="860.136" y="486.65">con identificación</tspan>
    </text>
  </g>
</svg>
