<?xml version="1.0" encoding="UTF-8" standalone="no"?>
<!DOCTYPE svg PUBLIC "-//W3C//DTD SVG 1.0//EN" "http://www.w3.org/TR/2001/PR-SVG-20010719/DTD/svg10.dtd">
<svg width="34cm" height="22cm" viewBox="131 51 674 434" xmlns="http://www.w3.org/2000/svg" xmlns:xlink="http://www.w3.org/1999/xlink">
  <g>
    <rect style="fill: #ffffff" x="131" y="71" width="673" height="247"/>
    <rect style="fill: none; fill-opacity:0; stroke-width: 1; stroke: #000000" x="131" y="71" width="673" height="247"/>
    <rect style="fill: #ffffff" x="131" y="51" width="65.6" height="20"/>
    <rect style="fill: none; fill-opacity:0; stroke-width: 1; stroke: #000000" x="131" y="51" width="65.6" height="20"/>
    <text font-size="12.7998" style="fill: #000000;text-anchor:start;font-family:monospace;font-style:normal;font-weight:normal" x="133" y="65">FCModule</text>
  </g>
  <g>
    <rect style="fill: #ffffff" x="437" y="348" width="96.55" height="28"/>
    <rect style="fill: none; fill-opacity:0; stroke-width: 1; stroke: #000000" x="437" y="348" width="96.55" height="28"/>
    <text font-size="16" style="fill: #000000;text-anchor:middle;font-family:sans-serif;font-style:normal;font-weight:700" x="485.275" y="368">FaceRecon</text>
    <rect style="fill: #ffffff" x="437" y="376" width="96.55" height="100"/>
    <rect style="fill: none; fill-opacity:0; stroke-width: 1; stroke: #000000" x="437" y="376" width="96.55" height="100"/>
    <text font-size="12.8" style="fill: #000000;text-anchor:start;font-family:monospace;font-style:normal;font-weight:normal" x="439.5" y="389.2">+URL</text>
    <text font-size="12.8" style="fill: #000000;text-anchor:start;font-family:monospace;font-style:normal;font-weight:normal" x="439.5" y="405.2">+clave</text>
    <text font-size="12.8" style="fill: #000000;text-anchor:start;font-family:monospace;font-style:normal;font-weight:normal" x="439.5" y="421.2">+servicio</text>
    <text font-size="12.8" style="fill: #000000;text-anchor:start;font-family:monospace;font-style:normal;font-weight:normal" x="439.5" y="437.2">+camara</text>
    <text font-size="12.8" style="fill: #000000;text-anchor:start;font-family:monospace;font-style:normal;font-weight:normal" x="439.5" y="453.2">+grupo</text>
    <text font-size="12.8" style="fill: #000000;text-anchor:start;font-family:monospace;font-style:normal;font-weight:normal" x="439.5" y="469.2">+fuente</text>
    <rect style="fill: #ffffff" x="437" y="476" width="96.55" height="8"/>
    <rect style="fill: none; fill-opacity:0; stroke-width: 1; stroke: #000000" x="437" y="476" width="96.55" height="8"/>
  </g>
  <g>
    <rect style="fill: #ffffff" x="144" y="148" width="202.5" height="28"/>
    <rect style="fill: none; fill-opacity:0; stroke-width: 1; stroke: #000000" x="144" y="148" width="202.5" height="28"/>
    <text font-size="16" style="fill: #000000;text-anchor:middle;font-family:sans-serif;font-style:normal;font-weight:700" x="245.25" y="168">Face</text>
    <rect style="fill: #ffffff" x="144" y="176" width="202.5" height="68"/>
    <rect style="fill: none; fill-opacity:0; stroke-width: 1; stroke: #000000" x="144" y="176" width="202.5" height="68"/>
    <text font-size="12.8" style="fill: #000000;text-anchor:start;font-family:monospace;font-style:normal;font-weight:normal" x="146.5" y="189.2">+esquinaSuperiorIzquierda</text>
    <text font-size="12.8" style="fill: #000000;text-anchor:start;font-family:monospace;font-style:normal;font-weight:normal" x="146.5" y="205.2">+esquinaInferiorDerecha</text>
    <text font-size="12.8" style="fill: #000000;text-anchor:start;font-family:monospace;font-style:normal;font-weight:normal" x="146.5" y="221.2">+nombre</text>
    <text font-size="12.8" style="fill: #000000;text-anchor:start;font-family:monospace;font-style:normal;font-weight:normal" x="146.5" y="237.2">+fichero</text>
    <rect style="fill: #ffffff" x="144" y="244" width="202.5" height="8"/>
    <rect style="fill: none; fill-opacity:0; stroke-width: 1; stroke: #000000" x="144" y="244" width="202.5" height="8"/>
  </g>
  <g>
    <rect style="fill: #ffffff" x="418.4" y="96.1" width="133.2" height="28"/>
    <rect style="fill: none; fill-opacity:0; stroke-width: 1; stroke: #000000" x="418.4" y="96.1" width="133.2" height="28"/>
    <text font-size="16" style="fill: #000000;text-anchor:middle;font-family:sans-serif;font-style:normal;font-weight:700" x="485" y="116.1">FCTools</text>
    <rect style="fill: #ffffff" x="418.4" y="124.1" width="133.2" height="8"/>
    <rect style="fill: none; fill-opacity:0; stroke-width: 1; stroke: #000000" x="418.4" y="124.1" width="133.2" height="8"/>
    <rect style="fill: #ffffff" x="418.4" y="132.1" width="133.2" height="52"/>
    <rect style="fill: none; fill-opacity:0; stroke-width: 1; stroke: #000000" x="418.4" y="132.1" width="133.2" height="52"/>
    <text font-size="12.8" style="fill: #000000;text-anchor:start;font-family:monospace;font-style:normal;font-weight:normal" x="420.9" y="145.3">+obtenerNombre()</text>
    <text font-size="12.8" style="fill: #000000;text-anchor:start;font-family:monospace;font-style:normal;font-weight:normal" x="420.9" y="161.3">+identificar()</text>
    <text font-size="12.8" style="fill: #000000;text-anchor:start;font-family:monospace;font-style:normal;font-weight:normal" x="420.9" y="177.3">+pintar()</text>
  </g>
  <g>
    <rect style="fill: #ffffff" x="642.8" y="154.2" width="140.9" height="28"/>
    <rect style="fill: none; fill-opacity:0; stroke-width: 1; stroke: #000000" x="642.8" y="154.2" width="140.9" height="28"/>
    <text font-size="16" style="fill: #000000;text-anchor:middle;font-family:sans-serif;font-style:normal;font-weight:700" x="713.25" y="174.2">FaceCrop</text>
    <rect style="fill: #ffffff" x="642.8" y="182.2" width="140.9" height="8"/>
    <rect style="fill: none; fill-opacity:0; stroke-width: 1; stroke: #000000" x="642.8" y="182.2" width="140.9" height="8"/>
    <rect style="fill: #ffffff" x="642.8" y="190.2" width="140.9" height="52"/>
    <rect style="fill: none; fill-opacity:0; stroke-width: 1; stroke: #000000" x="642.8" y="190.2" width="140.9" height="52"/>
    <text font-size="12.8" style="fill: #000000;text-anchor:start;font-family:monospace;font-style:normal;font-weight:normal" x="645.3" y="203.4">+recortarCara()</text>
    <text font-size="12.8" style="fill: #000000;text-anchor:start;font-family:monospace;font-style:normal;font-weight:normal" x="645.3" y="219.4">+detectarCara()</text>
    <text font-size="12.8" style="fill: #000000;text-anchor:start;font-family:monospace;font-style:normal;font-weight:normal" x="645.3" y="235.4">+capturarImagen()</text>
  </g>
  <g>
    <polyline style="fill: none; fill-opacity:0; stroke-width: 2; stroke: #000000" points="411.828,434 378,434 378,200 346.952,200 "/>
    <polygon style="fill: #ffffff" points="437,434 423,438.8 409,434 423,429.2 "/>
    <polygon style="fill: none; fill-opacity:0; stroke-width: 2; stroke: #000000" points="437,434 423,438.8 409,434 423,429.2 "/>
    <text font-size="12.7998" style="fill: #000000;text-anchor:start;font-family:monospace;font-style:normal;font-weight:normal" x="380" y="313">usa</text>
    <text font-size="12.7998" style="fill: #000000;text-anchor:end;font-family:monospace;font-style:normal;font-weight:normal" x="405" y="430">1</text>
    <text font-size="12.7998" style="fill: #000000;text-anchor:start;font-family:monospace;font-style:normal;font-weight:normal" x="350.952" y="196">*</text>
  </g>
  <g>
    <polyline style="fill: none; fill-opacity:0; stroke-width: 2; stroke: #000000" points="485.275,322.32 485.275,259.049 485,259.049 485,184.605 "/>
    <polygon style="fill: #ffffff" points="485.275,347.492 480.475,333.492 485.275,319.492 490.075,333.492 "/>
    <polygon style="fill: none; fill-opacity:0; stroke-width: 2; stroke: #000000" points="485.275,347.492 480.475,333.492 485.275,319.492 490.075,333.492 "/>
    <text font-size="12.7998" style="fill: #000000;text-anchor:middle;font-family:monospace;font-style:normal;font-weight:normal" x="485.138" y="255.049">usa</text>
    <text font-size="12.7998" style="fill: #000000;text-anchor:start;font-family:monospace;font-style:normal;font-weight:normal" x="496.275" y="343.492">1</text>
    <text font-size="12.7998" style="fill: #000000;text-anchor:start;font-family:monospace;font-style:normal;font-weight:normal" x="489" y="196.605">1</text>
  </g>
  <g>
    <polyline style="fill: none; fill-opacity:0; stroke-width: 2; stroke: #000000" points="558.722,434 603,434 603,200.2 642.8,200.2 "/>
    <polygon style="fill: #ffffff" points="533.55,434 547.55,429.2 561.55,434 547.55,438.8 "/>
    <polygon style="fill: none; fill-opacity:0; stroke-width: 2; stroke: #000000" points="533.55,434 547.55,429.2 561.55,434 547.55,438.8 "/>
    <text font-size="12.7998" style="fill: #000000;text-anchor:start;font-family:monospace;font-style:normal;font-weight:normal" x="605" y="313.1">usa</text>
    <text font-size="12.7998" style="fill: #000000;text-anchor:start;font-family:monospace;font-style:normal;font-weight:normal" x="565.55" y="430">1</text>
    <text font-size="12.7998" style="fill: #000000;text-anchor:end;font-family:monospace;font-style:normal;font-weight:normal" x="638.8" y="196.2">1</text>
  </g>
</svg>
